<svg xmlns="http://www.w3.org/2000/svg" xmlns:xlink="http://www.w3.org/1999/xlink" width="333.371" height="404.379" viewBox="0 0 333.371 404.379">
  <defs>
    <linearGradient id="linear-gradient" x1="0.449" y1="0.236" x2="1.046" y2="0.699" gradientUnits="objectBoundingBox">
      <stop offset="0" stop-color="#4d4c89"/>
      <stop offset="0.287" stop-color="#584785" stop-opacity="0.714"/>
      <stop offset="0.964" stop-color="#6e367d" stop-opacity="0"/>
    </linearGradient>
    <linearGradient id="linear-gradient-2" x1="0.571" y1="1.197" x2="0.434" y2="0.118" gradientUnits="objectBoundingBox">
      <stop offset="0.03" stop-color="#b9c725"/>
      <stop offset="0.44" stop-color="#84b732"/>
      <stop offset="0.81" stop-color="#5aaa3c"/>
      <stop offset="1" stop-color="#4aa540"/>
    </linearGradient>
    <linearGradient id="linear-gradient-3" x1="0.896" y1="0.191" x2="0.332" y2="0.581" gradientUnits="objectBoundingBox">
      <stop offset="0.032" stop-color="#008ed3"/>
      <stop offset="1" stop-color="#0054a5"/>
    </linearGradient>
    <linearGradient id="linear-gradient-4" x1="1" y1="0.384" x2="0.46" y2="0.485" xlink:href="#linear-gradient-3"/>
    <linearGradient id="linear-gradient-5" x1="-0.148" y1="0.178" x2="0.995" y2="0.728" xlink:href="#linear-gradient-2"/>
    <linearGradient id="linear-gradient-6" x1="0.022" y1="0.8" x2="1.134" y2="0.412" gradientUnits="objectBoundingBox">
      <stop offset="0" stop-color="#ef5323"/>
      <stop offset="0.418" stop-color="#dd3c20"/>
      <stop offset="1" stop-color="#bf151b"/>
    </linearGradient>
    <linearGradient id="linear-gradient-7" x1="0.633" y1="-0.304" x2="0.464" y2="1.004" xlink:href="#linear-gradient"/>
    <linearGradient id="linear-gradient-8" x1="0.508" y1="0.457" x2="0.615" y2="-0.853" gradientUnits="objectBoundingBox">
      <stop offset="0" stop-color="#4d4c89"/>
      <stop offset="0.081" stop-color="#645a7b" stop-opacity="0.961"/>
      <stop offset="0.229" stop-color="#8a7265" stop-opacity="0.886"/>
      <stop offset="0.368" stop-color="#a58255" stop-opacity="0.82"/>
      <stop offset="0.49" stop-color="#b58c4b" stop-opacity="0.757"/>
      <stop offset="0.583" stop-color="#bb9048" stop-opacity="0.714"/>
      <stop offset="0.964" stop-color="#6e367d" stop-opacity="0"/>
    </linearGradient>
    <linearGradient id="linear-gradient-9" x1="-0.002" y1="0.5" x2="0.998" y2="0.5" gradientUnits="objectBoundingBox">
      <stop offset="0" stop-color="#9db7c5"/>
      <stop offset="1" stop-color="#2483c5" stop-opacity="0"/>
    </linearGradient>
    <linearGradient id="linear-gradient-10" x1="1.351" y1="0.5" x2="-0.298" y2="0.5" xlink:href="#linear-gradient-9"/>
    <linearGradient id="linear-gradient-11" x1="230.454" y1="0.5" x2="231.454" y2="0.5" xlink:href="#linear-gradient-9"/>
    <linearGradient id="linear-gradient-12" x1="2518.136" y1="0.5" x2="2516.487" y2="0.5" xlink:href="#linear-gradient-9"/>
  </defs>
  <g id="Land_Survay_Mascot_SVG" transform="translate(1.785 1.776)">
    <g id="Group_28" data-name="Group 28" transform="translate(-506.124 -220.667)">
      <g id="Group_25" data-name="Group 25">
        <g id="Group_24" data-name="Group 24">
          <g id="Group_11" data-name="Group 11">
            <path id="Path_3" data-name="Path 3" d="M602.69,560.53s-15.52,23.99-7.52,43.58,24.4,1.63,29.41-9.06C619.22,577.19,616.64,560.53,602.69,560.53Z" fill="#ef5323" stroke="#231f20" stroke-linejoin="round" stroke-miterlimit="10" stroke-width="5.358"/>
            <path id="Path_4" data-name="Path 4" d="M771.4,400.67l19.3,7.19s12.01-3.32,13.83-10.34c1.31-5.06,1.23-16.76-8.87-20.07-19-12.98-65.02-8.53-85.52-5.87l7.71,42.84Z" fill="#71628e" stroke="#231f20" stroke-miterlimit="10" stroke-width="3.503"/>
            <path id="Path_5" data-name="Path 5" d="M803.67,391.54c1.1-2.92,0-8.92-8.02-14.08-19-12.98-65.02-8.53-85.52-5.87,0,0,37.38,4.55,47.49,5.87s32.3,11.96,33.11,11.93,4.07-4.59-9.34-10.72C781.38,378.66,801.25,386.89,803.67,391.54Z" fill="url(#linear-gradient)"/>
            <path id="Path_6" data-name="Path 6" d="M570.55,338.12s-34.39,8-42.45,35.04c-3.31,11.11,1.48,51.67,1.48,51.67s5.1-8,13.96-19.6c8.55-11.2,17.95-17.89,17.82-17.22Z" fill="#b4d234" stroke="#231f20" stroke-linejoin="round" stroke-miterlimit="10" stroke-width="3.503"/>
            <path id="Path_7" data-name="Path 7" d="M561.36,388l33.55-64.4-38.56-5.88-3.56,77.13s-34.57,20.68-43.38,30.27a12.629,12.629,0,0,0,3.6,19.73l21.74,11.19Z" fill="#ef5323" stroke="#231f20" stroke-linejoin="round" stroke-miterlimit="10" stroke-width="3.503"/>
            <path id="Path_8" data-name="Path 8" d="M518.52,422.11c1.85,2.27,5.34,8.02,20.71,11.95" fill="none" stroke="#d4ebe2" stroke-linejoin="round" stroke-miterlimit="10" stroke-width="8.036"/>
            <path id="Path_9" data-name="Path 9" d="M680.87,423.93c-2.14,12.53,25.02,55.55-1.04,75.26C651,521,568.8,518.98,568.8,518.98c-33-40.7-48.02-62.93-38.23-93.77,7.98-25.16,30.8-37.21,30.8-37.21,37.41-22.27,140.96-22.96,140.96-22.96,5.78-.75,60.04,2.33,68.47,4.42-4.99,14.58.59,31.21.59,31.21Z" fill="#b4d234" stroke="#231f20" stroke-linejoin="round" stroke-miterlimit="10" stroke-width="3.503"/>
            <path id="Path_10" data-name="Path 10" d="M695.15,369.46s-8.56,36.22,5.16,47.58c0,0,56.46-12.23,69.05-17.67,2.99-1.29-62.7,16.19-45.17,0,9.04-8.35,16.56-30.16,16.56-30.16S700.48,364.31,695.15,369.46Z" fill="url(#linear-gradient-2)"/>
            <path id="Path_11" data-name="Path 11" d="M645.09,478.01c15.9,19,31.44,130.37,26.3,124.94-8.73-9.24-29.46-1.35-29.46-1.35l-82.2-80.51c-26.12-29.23-21.91-40.28-26.19-53.13,0,0,6.1,11.04,31.71,16.18C600.75,491.27,617.38,484.94,645.09,478.01Z" fill="#008ed3" stroke="#231f20" stroke-miterlimit="10" stroke-width="3.503"/>
            <path id="Path_12" data-name="Path 12" d="M643.23,478.48c16.58,32.72,22.51,75.42,25.52,101.83-11.99,6.92-33.21,13.1-33.21,13.1s-34.21-36.88-47.65-55.55a366.29,366.29,0,0,1-22.64-36.08c-6.2,6.08-13.42.65-19.07-3.41-10.48-20.29-1.11-18.28,19.07-14.22C600.75,491.27,615.52,485.41,643.23,478.48Z" fill="url(#linear-gradient-3)"/>
            <path id="Path_13" data-name="Path 13" d="M685.47,543.63c11.34-24.59,11.29-60.61-4.61-79.61-9.79,11.07-59.74,23.61-105.05,21.76,0,0,9.45,31.15,30.18,29.32h0a26,26,0,0,1,.78,35.28l-7.96,9s5.12,28.95,25.5,34.04C624.32,593.42,669.32,578.65,685.47,543.63Z" fill="#00a7e9" stroke="#231f20" stroke-miterlimit="10" stroke-width="3.503"/>
            <path id="Path_14" data-name="Path 14" d="M634.64,483.76c-7.79,2.45-10.17,4-55.49,2.16,0,0,7.19,28.19,27.92,26.36,0,0,18.73,14.26,9.84,36.66-2.49,6.28-11.61,14.97-11.61,14.97s.56,19.43,18.9,26.8c0,0,27.81-10.82,47.58-32.13-20.37,17.29-43.92-28.4-41.46-58.25,4.86,8.88,42.07,16.13,62.19-6.58,1.81-2.05,4.66-14.07-5.92-15.26C670.1,476.62,636.45,485.93,634.64,483.76Z" fill="url(#linear-gradient-4)"/>
            <path id="Path_15" data-name="Path 15" d="M678.2,503.04s-34.2,15.53-47.88-2.72l-2.15-7.2" fill="none" stroke="#00bff2" stroke-linecap="round" stroke-miterlimit="10" stroke-width="1.961"/>
            <path id="Path_16" data-name="Path 16" d="M547.23,500.31s12.68,10.03,17.71,2.62l-1.7-8.54" fill="none" stroke="#00bff2" stroke-linecap="round" stroke-miterlimit="10" stroke-width="1.961"/>
            <path id="Path_17" data-name="Path 17" d="M530.23,445.68s2.07,8.11,10.45,15.83c24.58,22.64,60.65,10.91,60.65,10.91s-43.62-8.4-42.27-47.6c.42-12.2,17.24-4.69,35.85-2.71,7.25.77,10.39-24.08,10.39-24.08l35.45,13.84s-7.67,35.39-6.44,66.15c0,0-61.76,15.73-98.35-10.49A35.746,35.746,0,0,1,530.23,445.68Z" fill="url(#linear-gradient-5)"/>
            <path id="Path_18" data-name="Path 18" d="M688.58,472.72l-2.96-11.63s-54.35,26.71-109.81,20.74c-32.41-3.49-40.13-15.27-40.13-15.27l-6.8-.46.92,7.8a10.674,10.674,0,0,0,2.98,6.26c4.9,5,17.28,14.74,41.5,18.05C599.56,501.66,647.02,493.65,688.58,472.72Z" fill="#231f20"/>
            <path id="Path_19" data-name="Path 19" d="M685.62,461.09s-56.07,24.74-107.14,20.39a98.952,98.952,0,0,1-28.7-6.93c-10.9-4.35-14.1-7.99-14.1-7.99l-6.8-.46s13.21,12.15,44.8,16.53c37.36,5.18,84.55-8.48,112.91-20.91Z" fill="#404041"/>
            <path id="Path_20" data-name="Path 20" d="M565.26,369.46s-24.18,12.4-46.35,10.22c0,0-.44,11.78,18.06,12.34,15.69.47,24.4-4.03,24.4-4.03Z" fill="#fff" stroke="#231f20" stroke-miterlimit="10" stroke-width="3.503"/>
            <path id="Path_21" data-name="Path 21" d="M711.45,417.64l4.69,70.89s-21.07,6.6-58.39,4.96a23.579,23.579,0,0,1-22.54-24.67c1.91-39.13,11.27-117.06,55.77-111.44l11.18-.31s-14.11,36.28-10.41,51.14C695.15,421.85,711.45,417.64,711.45,417.64Z" fill="#ef5323" stroke="#231f20" stroke-linejoin="round" stroke-miterlimit="10" stroke-width="3.503"/>
            <path id="Path_22" data-name="Path 22" d="M709.57,419.41l4.68,67.78-19.1,2.67c-6.36-13.43,5.72-69.78-14-83.88-8.76-6.26-16.26-.29-34.99,2.04,0-13.11,24.02-26.82,40.43-24.75l15.57-26.21s-16.06,37.2-12.36,52.05C693.2,422.76,709.57,419.41,709.57,419.41Z" fill="url(#linear-gradient-6)"/>
            <path id="Path_23" data-name="Path 23" d="M678.34,390.38h0a35.332,35.332,0,0,0,43.5-5.2l13.41-13.47a25.449,25.449,0,0,0-6.66-40.72l-18.48-9.24-3.07-28.37s-11.54-33.21-51.61-36.94c-37.07-3.45-52.35,19.84-52.35,19.84s-18.37,23.89-29.26,52.33-15.56,43.17-17.15,62.7c-4.83,59.63,43.28,80.38,75.94,66.72l-3.86-13.92s-29.4,3.86-26.16-20.79c1.97-15.03,15.17-25.83,15.17-25.83-1.78,16.03,11.62,24.94,11.62,24.94l19.26-23.75Z" fill="#71628e" stroke="#231f20" stroke-miterlimit="10" stroke-width="3.503"/>
            <circle id="Ellipse_1" data-name="Ellipse 1" cx="10.31" cy="10.31" r="10.31" transform="translate(622.14 346.75)" fill="#fff"/>
            <circle id="Ellipse_2" data-name="Ellipse 2" cx="5.99" cy="5.99" r="5.99" transform="translate(628.77 351.07)" fill="#231f20"/>
            <path id="Path_24" data-name="Path 24" d="M621.84,390.6s1.58,17.8,5.74,19.44,16.76-21.42,16.76-21.42A52.073,52.073,0,0,1,621.84,390.6Z" fill="#f05b66"/>
            <path id="Path_25" data-name="Path 25" d="M649.5,383.59c-20.73,18.3-44.79,3.87-44.79,3.87" fill="#6e5d7b" stroke="#231f20" stroke-miterlimit="10" stroke-width="5.358"/>
            <path id="Path_26" data-name="Path 26" d="M646.17,365.87c.14,5.98,1.98,12.79,4.23,16.16,1.56,2.33,5.68,6.59,11.33,7.35,9.06,1.22,16.93-.69,17.82-2.49-12.62-.59-16.69-.87-24.75-6.13C651.44,378.58,647.36,370.64,646.17,365.87Z" fill="#9379b6"/>
            <path id="Path_27" data-name="Path 27" d="M686.57,301.98a182.914,182.914,0,0,1-4.03,36.01c-3.35,14.62-11.28,41.13-28.21,58.52l15.92-4.03s8.98-10.41,16.15-30.29a183.249,183.249,0,0,0,10.41-52.92Z" fill="#231f20"/>
            <path id="Path_28" data-name="Path 28" d="M591.75,269.75s7.91-36.2,40.63-46.25c45.12-13.86,89.86,25.34,85.11,69.68-1.27,11.84-7.36,28.57-7.36,28.57s-16.92-21.87-34.59-33.6C663.35,280.06,620.42,268.89,591.75,269.75Z" fill="#fbae17" stroke="#231f20" stroke-linecap="round" stroke-linejoin="round" stroke-miterlimit="10" stroke-width="3.503"/>
            <path id="Path_29" data-name="Path 29" d="M606.79,388.61s-8.8,14.04-30.97,11.86c0,0,5.74,24.84,32.27,9.9a77.973,77.973,0,0,0,18.77-15.51,122.218,122.218,0,0,1-13.17-3.67C608.72,389.32,606.79,388.61,606.79,388.61Z" fill="#fff" stroke="#231f20" stroke-miterlimit="10" stroke-width="3.503"/>
            <path id="Path_30" data-name="Path 30" d="M598.82,276.36s1.79-40.52,35.64-50.32c6.25-1.81,27.52-7.62,51.96,8.51,21,13.86,25.98,30.59,28.21,44.6,0,0-8.15-47.36-58.55-49.95-11.58-.59-19.44,5.93-20.91,10.99-3.86,13.29,19.62,36.16,19.62,36.16S611.78,260.85,598.82,276.36Z" fill="#fff100"/>
            <path id="Path_31" data-name="Path 31" d="M570.58,380.76c-2.5,20.41-1.46,52.24,22.98,69.77,3.78,2.71,14.17,7.01,14.64,7.95.35.69-5.6,1.46-16.12-2.84-14.96-6.12-34.99-22.65-32.87-62.46,1.42-26.63,16.6-68.22,32.54-94.9C587.94,308.24,571.75,371.21,570.58,380.76Z" fill="#9379b6"/>
            <path id="Path_32" data-name="Path 32" d="M591.75,298.29c1.64-2.3,1.79-3.64,4.17-7.11,3.7-5.4,7.85-10.88,11.04-12.37a19.648,19.648,0,0,1,8.91-1.56c11,.33,28.66,2.32,37.25,5.4,17.96,6.44,37.41,19.32,54.78,40.83.29.91-32.44-3.98-58.4-21.5C624.58,285.15,603.11,288.25,591.75,298.29Z" fill="url(#linear-gradient-7)"/>
            <path id="Path_33" data-name="Path 33" d="M595.38,287.36c-10.7-8.2-23.67-28.75-5.77-35.35,27.47-10.12,70.62,15.7,90.55,29.46,21.42,14.78,41.39,36.97,29.96,40.28,1.57,2.65-16.17-17.52-14.97-14.67a129.3,129.3,0,0,0-34.32-24.4c-12.41-6.12-21.82-6.43-42.32-8C602.41,273.45,598.82,282.23,595.38,287.36Z" fill="#ffc50a" stroke="#231f20" stroke-linecap="round" stroke-linejoin="round" stroke-miterlimit="10" stroke-width="3.503"/>
            <path id="Path_34" data-name="Path 34" d="M594.91,284.91c-9.63-7.97-19.34-24.16-3.76-29.88,22.17-8.14,65.47,15.27,85.41,29.02,21.42,14.78,43.3,34.99,31.87,38.3.98,1.66-3.12-6.08-15.65-17.52a141.1,141.1,0,0,0-32.73-23.06c-11.92-6.03-21.18-6.57-41.67-8.14C602.26,272.39,598.35,279.78,594.91,284.91Z" fill="url(#linear-gradient-8)"/>
            <path id="Path_35" data-name="Path 35" d="M616.4,276.36" fill="#6e5d7b" stroke="#231f20" stroke-linecap="round" stroke-linejoin="round" stroke-miterlimit="10" stroke-width="7.143"/>
            <path id="Path_36" data-name="Path 36" d="M622.58,325.57c4.64-2.59,14.24-1.85,18.18,7.68" fill="#6e5d7b" stroke="#231f20" stroke-linecap="round" stroke-linejoin="round" stroke-miterlimit="10" stroke-width="7.143"/>
            <path id="Path_37" data-name="Path 37" d="M641.94,435.81c8.92,1.43,20.18,3.35,33.44,1.97s28.52-7.09,34.19-7.42" fill="none" stroke="#d4ebe2" stroke-linejoin="round" stroke-miterlimit="10" stroke-width="8.036"/>
            <path id="Path_38" data-name="Path 38" d="M639.06,463.87c7.44.71,18.66,3.55,35.14,1.93,25.46-2.51,33.39-6.76,37.32-7.01" fill="none" stroke="#d4ebe2" stroke-linejoin="round" stroke-miterlimit="10" stroke-width="8.036"/>
            <path id="Path_39" data-name="Path 39" d="M672.39,596.43c-19.21,5.24-37.76-.69-37.76-.69s-17.2,11.04-8.3,16.39,37.88,1.05,44.82-2.16C671.16,609.97,675.24,602.47,672.39,596.43Z" fill="#ef5323" stroke="#231f20" stroke-linejoin="round" stroke-miterlimit="10" stroke-width="5.358"/>
            <path id="Path_40" data-name="Path 40" d="M538,484.67c-1.49-2.91-2.41-8.99-.77-13.09.38-.95,1.48-.95,3.04-1.79,0,0,1.79-.16,4.72,2.62,0,0-2.92.67-3.14,1.43-.66,2.3-.75,7.01,1.93,14.67A31.921,31.921,0,0,1,538,484.67Z" fill="#008ed3"/>
            <path id="Path_41" data-name="Path 41" d="M553.95,494.07c-1.59-3.25-1.86-12.21-.36-16.79,0,0,3.45-.63,4.55-.75,0,0,13.46,2.7,23.07,4.35l-2.7,1.61c-.74,2.75-.92,10.08,1.14,17.5C579.64,499.98,561.49,498.37,553.95,494.07Z" fill="#caccce"/>
            <path id="Path_42" data-name="Path 42" d="M578.5,482.49l2.7-1.61c-9.6-1.65-23.07-4.35-23.07-4.35-1.09.12-4.55.75-4.55.75S562.09,480.17,578.5,482.49Z" fill="#fff"/>
            <path id="Path_43" data-name="Path 43" d="M601.44,481.66l-2.58,1.89s-.4,11.62,1.29,14.82l5.15-.52s-2.39-9.63-1.79-14.59l2.49-1.93S602.93,481.58,601.44,481.66Z" fill="#008ed3"/>
            <path id="Path_44" data-name="Path 44" d="M625.22,478.81l-1.51,1.72s.89,10.67,2.58,13.87l5.15-1.13s-3.23-8.56-2.63-13.51l.49-1.73A18.43,18.43,0,0,0,625.22,478.81Z" fill="#008ed3"/>
            <path id="Path_45" data-name="Path 45" d="M579.64,499.98l.77-1.11s-2.56-8.44-1.24-15.69l2.02-1.5v-.8l-2.7,1.61C578.5,482.49,576.46,489.04,579.64,499.98Z" fill="#85878a"/>
            <g id="Group_5" data-name="Group 5">
              <path id="Path_46" data-name="Path 46" d="M646.04,367.37c1.82,6.86,2.18,14.42,8.02,18.91a23.4,23.4,0,0,0,6.77,3c-5.53,3.18-12.78.43-15.49-5.32a17.435,17.435,0,0,1,.7-16.59Z" fill="#231f20"/>
            </g>
            <g id="Group_6" data-name="Group 6">
              <path id="Path_47" data-name="Path 47" d="M694.94,349.1c1.13-21.28,28.02-17.45,37.82-4.58a13.6,13.6,0,0,1,2.78,6.12.218.218,0,0,1-.19.25.221.221,0,0,1-.25-.16c-1.39-4.1-4.82-7.04-8.45-9.08-8.6-5.05-20.49-5.47-27.54,2.38a39.3,39.3,0,0,0-3.74,5.17.227.227,0,0,1-.43-.1Z" fill="#231f20"/>
            </g>
            <g id="Group_7" data-name="Group 7">
              <path id="Path_48" data-name="Path 48" d="M585.75,427.11c-7.81,3.02-21.3,2.51-26.91-4.55a9.6,9.6,0,0,1-1.2-9.67.187.187,0,0,1,.35.04,17.815,17.815,0,0,0,1.33,4.16c5,9.01,16.81,11.3,26.33,9.67.2-.04.3.28.1.35Z" fill="#231f20"/>
            </g>
            <g id="Group_8" data-name="Group 8">
              <path id="Path_49" data-name="Path 49" d="M587.94,435.61c-7.81,3.02-21.3,2.51-26.91-4.55a9.6,9.6,0,0,1-1.2-9.67.187.187,0,0,1,.35.04,17.815,17.815,0,0,0,1.33,4.16c5,9.01,16.81,11.3,26.33,9.67.2-.04.31.28.1.35Z" fill="#231f20"/>
            </g>
            <g id="Group_9" data-name="Group 9">
              <path id="Path_50" data-name="Path 50" d="M589.74,443.76c-6.72,2.55-17.91,2.16-22.78-3.85a8.15,8.15,0,0,1-1.02-8.19.159.159,0,0,1,.3.04,15.725,15.725,0,0,0,1.12,3.53c4.23,7.63,14.23,9.57,22.29,8.19a.147.147,0,0,1,.09.28Z" fill="#231f20"/>
            </g>
            <g id="Group_10" data-name="Group 10">
              <path id="Path_51" data-name="Path 51" d="M584.62,418.53c-7.81,3.02-21.3,2.51-26.91-4.55a9.6,9.6,0,0,1-1.2-9.67.187.187,0,0,1,.35.04,17.815,17.815,0,0,0,1.33,4.16c5,9.01,16.81,11.3,26.33,9.67.2-.05.31.28.1.35Z" fill="#231f20"/>
            </g>
            <path id="Path_52" data-name="Path 52" d="M609.67,367.77c-4.06,5.71-6,12.03-4.6,16.53,11.23,6.66,28.4,8.84,34,2.59,0,0-19.16,6.24-22.51-16.17C615.8,365.67,614.63,360.81,609.67,367.77Z" fill="#9379b6"/>
          </g>
          <g id="Group_23" data-name="Group 23">
            <g id="Group_18" data-name="Group 18">
              <g id="Group_17" data-name="Group 17">
                <g id="Group_12" data-name="Group 12">
                  <path id="Path_53" data-name="Path 53" d="M788.12,615.3a1.113,1.113,0,0,1-.98-.59l-2.6-4.95a1.177,1.177,0,0,1-.13-.52V392.06a1.1,1.1,0,0,1,.53-.94,1.124,1.124,0,0,1,.59-.17,1.044,1.044,0,0,1,.49.12,17.868,17.868,0,0,0,4.81,1.49h.03a8.436,8.436,0,0,0,.98.06c2.05,0,3.02-.9,3.16-2.92.14-2.72-1.49-4.96-2.89-6.37a16.685,16.685,0,0,0-2.03-1.69.423.423,0,0,1-.07-.05,24.812,24.812,0,0,0-4.89-2.69,1.116,1.116,0,0,1-.71-1.04V330.52a1.114,1.114,0,0,1,1.11-1.11h5.17a1.114,1.114,0,0,1,1.11,1.11v49.61a15.8,15.8,0,0,1,1.87,1.62c2.54,2.49,3.73,5.21,3.54,8.08a4.953,4.953,0,0,1-5.36,5.04h-.05V609.24a1.019,1.019,0,0,1-.13.51l-2.57,4.95a1.1,1.1,0,0,1-.98.6Z" fill="#231f20"/>
                  <path id="Path_54" data-name="Path 54" d="M790.69,330.52v50.19a25.814,25.814,0,0,0-5.17-2.85V330.52h5.17m0,50.18c.01.01.02.01.02.02-.01-.01-.02-.01-.02-.02h0m.02.02a13.928,13.928,0,0,1,2.17,1.81,17.5,17.5,0,0,0-2.17-1.81m2.18,1.81a9.323,9.323,0,0,1,3.22,7.23c.16-3.12-1.65-5.65-3.22-7.23m3.21,7.24c-.19,3.46-2.72,3.99-4.25,3.99a6.483,6.483,0,0,1-1.15-.1,8.68,8.68,0,0,0,1.13.07c2.15,0,4.06-.89,4.27-3.96m-10.58,2.29a18.887,18.887,0,0,0,5.17,1.6V609.24l-2.57,4.95-2.6-4.95V392.06m5.17,1.6h0m0-65.37h-5.17a2.221,2.221,0,0,0-2.22,2.22v47.34a2.232,2.232,0,0,0,1.43,2.08,23.854,23.854,0,0,1,4.61,2.54.833.833,0,0,0,.12.08,16.6,16.6,0,0,1,1.87,1.56c1.24,1.25,2.68,3.22,2.56,5.52-.1,1.44-.58,1.88-2.05,1.88a8.171,8.171,0,0,1-.82-.05.09.09,0,0,1-.05-.01,16.515,16.515,0,0,1-4.46-1.38,2.271,2.271,0,0,0-.98-.23,2.184,2.184,0,0,0-1.18.34,2.236,2.236,0,0,0-1.05,1.89V609.25a2.158,2.158,0,0,0,.26,1.03l2.6,4.95a2.22,2.22,0,0,0,1.97,1.19h0a2.21,2.21,0,0,0,1.97-1.2l2.57-4.95a2.3,2.3,0,0,0,.25-1.03V395.92a5.961,5.961,0,0,0,5.41-6.02c.21-3.16-1.13-6.26-3.87-8.95a18.362,18.362,0,0,0-1.54-1.38V330.51a2.236,2.236,0,0,0-2.23-2.22Z" fill="#231f20"/>
                </g>
                <g id="Group_16" data-name="Group 16">
                  <g id="Group_13" data-name="Group 13">
                    <path id="Path_55" data-name="Path 55" d="M777.5,333.16a1.588,1.588,0,0,1-1.59-1.59v-3.5l-2.75-2.93-21.44-.3a4.92,4.92,0,0,1-4.8-4.52l-2.58-31.65s-.49-3.7-2.56-5.57a1.607,1.607,0,0,1-.53-1.18v-5.14a1.6,1.6,0,0,1-.77-1.36v-5.19a1.653,1.653,0,0,1,.25-.86,94.558,94.558,0,0,1,9.43-12.16c5.09-5.36,15.29-7.37,37.66-7.42h.98c22.37.06,32.57,2.07,37.66,7.43a94.831,94.831,0,0,1,9.43,12.16,1.542,1.542,0,0,1,.25.86v5.19a1.591,1.591,0,0,1-.77,1.36v5.14a1.571,1.571,0,0,1-.53,1.18c-2.07,1.86-2.56,5.59-2.57,5.63l-2.57,31.59a4.908,4.908,0,0,1-4.78,4.52l-21.46.34-2.75,2.9v3.5a1.588,1.588,0,0,1-1.59,1.59H777.5Z" fill="#646a84"/>
                    <path id="Path_56" data-name="Path 56" d="M788.8,251.36h0c21.17.05,31.7,1.87,36.51,6.93a93.332,93.332,0,0,1,9.24,11.92v5.19l-.77.34v6.16c-2.57,2.31-3.08,6.62-3.08,6.62l-2.58,31.65a3.333,3.333,0,0,1-3.24,3.06l-22.12.35-3.64,3.84v4.13H777.5v-4.13l-3.64-3.88-22.12-.32a3.333,3.333,0,0,1-3.24-3.06l-2.58-31.65s-.51-4.31-3.08-6.62v-6.16l-.77-.34V270.2a93.332,93.332,0,0,1,9.24-11.92c4.8-5.06,15.34-6.88,36.51-6.93h.49c.17.01.33.01.49.01m0-3.18h-1.09c-22.8.06-33.29,2.21-38.72,7.92a95.925,95.925,0,0,0-9.61,12.39,3.166,3.166,0,0,0-.5,1.72v5.19a3.134,3.134,0,0,0,.77,2.07v4.43a3.167,3.167,0,0,0,1.05,2.36c1.32,1.18,1.92,3.72,2.05,4.6l2.57,31.57a6.492,6.492,0,0,0,6.33,5.98l20.8.3,1.86,1.98v2.88a3.175,3.175,0,0,0,3.18,3.18H799.1a3.175,3.175,0,0,0,3.18-3.18V328.7l1.85-1.95,20.78-.33a6.506,6.506,0,0,0,6.36-5.98l2.57-31.57c.12-.85.72-3.4,2.05-4.59a3.167,3.167,0,0,0,1.05-2.36v-4.43a3.173,3.173,0,0,0,.77-2.07v-5.19a3.253,3.253,0,0,0-.5-1.72,95.2,95.2,0,0,0-9.61-12.39c-5.42-5.71-15.92-7.86-38.72-7.92a.108.108,0,0,0-.08-.02Z" fill="#231f20"/>
                  </g>
                  <path id="Path_57" data-name="Path 57" d="M742.07,275.41v-5.19a93.332,93.332,0,0,1,9.24-11.92c4.8-5.06,15.34-6.88,36.51-6.93h.98c21.17.05,31.7,1.87,36.51,6.93a93.332,93.332,0,0,1,9.24,11.92v5.19s0-3.02-46.24-3.02S742.07,275.41,742.07,275.41Z" fill="#fbb216"/>
                  <path id="Path_58" data-name="Path 58" d="M788.31,272.39" fill="#256eb5"/>
                  <path id="Path_59" data-name="Path 59" d="M757.21,322.91h-5.13a3.333,3.333,0,0,1-3.24-3.06l-2.58-31.65s-.38-4.02-2.94-6.33c0,0,9.14.57,10.8,9l3.14,32.11" fill="#9ea9be"/>
                  <path id="Path_60" data-name="Path 60" d="M819.33,322.91h5.13a3.333,3.333,0,0,0,3.24-3.06l2.58-31.65s.38-4.02,2.94-6.33c0,0-9.14.57-10.8,9l-3.14,32.11" fill="#9ea9be"/>
                  <path id="Path_61" data-name="Path 61" d="M827.36,260.58s-1.21-1.4-2.04-2.28c-4.8-5.06-15.35-6.88-36.52-6.94h-.98c-21.17.05-31.7,1.87-36.51,6.93-.84.88-1.66,1.81-2.45,2.75,0,0,14.61-4,39.66-3.7C799.66,257.48,818.44,258.25,827.36,260.58Z" fill="#e73525"/>
                  <path id="Path_62" data-name="Path 62" d="M814.6,285.85s-7.68-2.91-26.28-2.91-26.28,2.91-26.28,2.91l1.29,33.52h50Z" fill="#727790"/>
                  <path id="Path_63" data-name="Path 63" d="M770.77,284a44.708,44.708,0,0,0-8.74,1.85l1.29,33.52h7.59Z" fill="#8c93ac"/>
                  <path id="Path_64" data-name="Path 64" d="M805.85,284a44.708,44.708,0,0,1,8.74,1.85l-1.29,33.52h-7.59Z" fill="#8c93ac"/>
                  <path id="Path_65" data-name="Path 65" d="M819.89,319.37h-62.9l-1.72,1.1,1.98,2.63,31.06.32,31.37-.38,1.94-2.57Z" fill="#6c718a"/>
                  <path id="Path_66" data-name="Path 66" d="M813.47,319.37H763.34l2.82,3.84,22.15.21,22.38-.32Z" fill="#545c74"/>
                  <path id="Path_67" data-name="Path 67" d="M814.6,285.74s-7.68-2.8-26.28-2.8-26.28,2.8-26.28,2.8Z" fill="#464e66"/>
                  <path id="Path_68" data-name="Path 68" d="M755.09,322.91l-6.62-7.62.09,1.11,4.05,6.51Z" fill="#71798f"/>
                  <path id="Path_69" data-name="Path 69" d="M821.36,322.91l6.63-7.62-.09,1.11-4.06,6.51Z" fill="#71798f"/>
                  <path id="Path_70" data-name="Path 70" d="M802.53,323.22l-3.81,4.13h-20.8l-3.7-4.06Z" fill="#394055"/>
                  <rect id="Rectangle_1" data-name="Rectangle 1" width="3.61" height="3.82" transform="translate(777.93 327.35)" fill="#52596e"/>
                  <rect id="Rectangle_2" data-name="Rectangle 2" width="3.61" height="3.82" transform="translate(795.1 327.35)" fill="#52596e"/>
                  <rect id="Rectangle_3" data-name="Rectangle 3" width="5.33" height="3.82" transform="translate(785.22 327.35)" fill="#686f83"/>
                  <path id="Path_71" data-name="Path 71" d="M834.55,270.21v4.61s0-2.85-46.24-2.85-46.24,3.42-46.24,3.42v-4.61C747.91,266.51,826.25,265.48,834.55,270.21Z" fill="#ffc50a"/>
                  <path id="Path_72" data-name="Path 72" d="M826.3,273.14c-4.16-.4-10.42-.77-19.83-.98l.3-4.89c7.59.2,14.42.58,19.49,1.16Z" fill="#ffe600"/>
                  <path id="Path_73" data-name="Path 73" d="M767.35,272.28c-8.39.28-14,.71-17.74,1.17v-4.43c4.48-.57,10.55-1.03,17.42-1.35Z" fill="#ffe600"/>
                  <path id="Path_74" data-name="Path 74" d="M750.99,267.1s.86-4.18,2.8-4.64S751.28,268.2,750.99,267.1Z" fill="#fff"/>
                  <path id="Path_75" data-name="Path 75" d="M824.21,267.1s-.86-4.18-2.8-4.64S823.93,268.2,824.21,267.1Z" fill="#fff"/>
                  <rect id="Rectangle_4" data-name="Rectangle 4" width="32.15" height="25.66" transform="translate(772.3 289.63)" fill="#000001"/>
                  <g id="Group_14" data-name="Group 14">
                    <path id="Path_76" data-name="Path 76" d="M769.47,306.69l-4.51-1.51a.442.442,0,0,1-.3-.42v-7.11a.429.429,0,0,1,.32-.42l4.51-1.29a.439.439,0,0,1,.56.42v9.91A.446.446,0,0,1,769.47,306.69Z" fill="#000001"/>
                    <path id="Path_77" data-name="Path 77" d="M768.83,305.93l-3.69-1.32a.166.166,0,0,1-.11-.17v-6.59a.174.174,0,0,1,.12-.17l3.69-1.14a.166.166,0,0,1,.21.17v9.05A.176.176,0,0,1,768.83,305.93Z" fill="url(#linear-gradient-9)"/>
                    <path id="Path_78" data-name="Path 78" d="M769.24,296.08c.18-.04.36.06.36.19v9.94c0,.13-.19.23-.37.19Z" fill="url(#linear-gradient-10)"/>
                  </g>
                  <g id="Group_15" data-name="Group 15">
                    <path id="Path_79" data-name="Path 79" d="M807.35,306.69l4.51-1.51a.442.442,0,0,0,.3-.42v-7.11a.429.429,0,0,0-.32-.42l-4.51-1.29a.439.439,0,0,0-.56.42v9.91A.443.443,0,0,0,807.35,306.69Z" fill="#000001"/>
                    <path id="Path_80" data-name="Path 80" d="M807.99,305.93l3.69-1.32a.166.166,0,0,0,.11-.17v-6.59a.174.174,0,0,0-.12-.17l-3.69-1.14a.166.166,0,0,0-.21.17v9.05A.169.169,0,0,0,807.99,305.93Z" fill="url(#linear-gradient-11)"/>
                    <path id="Path_81" data-name="Path 81" d="M807.57,296.08c-.18-.04-.36.06-.36.19v9.94c0,.13.19.23.37.19Z" fill="url(#linear-gradient-12)"/>
                  </g>
                  <path id="Path_82" data-name="Path 82" d="M796.91,294.23h4.01a1.609,1.609,0,0,1,1.61,1.61V311.9a1.477,1.477,0,0,1-1.48,1.48H775.7a1.477,1.477,0,0,1-1.48-1.48V295.84a1.609,1.609,0,0,1,1.61-1.61h3.91" fill="none" stroke="#fff" stroke-miterlimit="10" stroke-width="0.257"/>
                  <rect id="Rectangle_5" data-name="Rectangle 5" width="20.79" height="3.56" transform="translate(777.93 300.56)" fill="#68c5b5"/>
                  <rect id="Rectangle_6" data-name="Rectangle 6" width="2.65" height="0.86" transform="translate(780.58 293.38)" fill="#fff100"/>
                  <rect id="Rectangle_7" data-name="Rectangle 7" width="2.65" height="0.86" transform="translate(793.15 293.38)" fill="#fff100"/>
                </g>
              </g>
            </g>
            <g id="Group_20" data-name="Group 20">
              <g id="Group_19" data-name="Group 19">
                <path id="Path_83" data-name="Path 83" d="M759.69,469.19a1.229,1.229,0,0,1-1.23-1.23V421.18a1.229,1.229,0,0,1,1.23-1.23h17.33a1.229,1.229,0,0,1,1.23,1.23v46.78a1.229,1.229,0,0,1-1.23,1.23Z" fill="#231f20"/>
                <path id="Path_84" data-name="Path 84" d="M777.02,421.19v46.77H759.69V421.19h17.33m0-2.46H759.69a2.458,2.458,0,0,0-2.46,2.46v46.77a2.458,2.458,0,0,0,2.46,2.46h17.33a2.458,2.458,0,0,0,2.46-2.46V421.19a2.458,2.458,0,0,0-2.46-2.46Z" fill="#231f20"/>
              </g>
              <rect id="Rectangle_8" data-name="Rectangle 8" width="13.18" height="20.48" transform="translate(761.77 423.2)" fill="none" stroke="#fbb216" stroke-miterlimit="10" stroke-width="2.265"/>
              <circle id="Ellipse_3" data-name="Ellipse 3" cx="2.15" cy="2.15" r="2.15" transform="translate(766.42 447.75)" fill="#fbb216"/>
            </g>
            <g id="Group_21" data-name="Group 21">
              <rect id="Rectangle_9" data-name="Rectangle 9" width="21.22" height="6.64" transform="translate(777.09 440.36)" fill="#231f20"/>
            </g>
            <g id="Group_22" data-name="Group 22">
              <path id="Path_85" data-name="Path 85" d="M800.29,452.65h-3.11a1.53,1.53,0,0,1-1.53-1.53V436.24a1.53,1.53,0,0,1,1.53-1.53h3.11a3.376,3.376,0,0,1,3.38,3.38v11.17A3.384,3.384,0,0,1,800.29,452.65Z" fill="#231f20"/>
            </g>
          </g>
        </g>
      </g>
    </g>
    <path id="Path_155" data-name="Path 155" d="M783.32,609.63l5.15,13.64,4.44-13.82A9.118,9.118,0,0,0,783.32,609.63Z" transform="translate(-506.124 -220.667)" fill="#231f20"/>
  </g>
</svg>
